<?xml version="1.0" encoding="utf-8"?>
<!-- Generator: Adobe Illustrator 23.0.1, SVG Export Plug-In . SVG Version: 6.00 Build 0)  -->
<svg version="1.1" id="Layer_1" xmlns="http://www.w3.org/2000/svg" xmlns:xlink="http://www.w3.org/1999/xlink" x="0px" y="0px"
	 viewBox="0 0 251.7 107.3" style="enable-background:new 0 0 251.7 107.3;" xml:space="preserve">
<style type="text/css">
	.st0{fill:#FEC601;}
</style>
<path class="st0" d="M31,104c-9.8,0-17.4-2.8-22.9-8.3C2.7,90.1,0,82.8,0,73.6c0-8.1,1.6-15.2,4.8-21.3c3.2-6.1,7.4-10.8,12.5-14.1
	s10.4-5,16-5c5.5,0,9.8,1.6,12.8,4.9c3.1,3.2,4.6,7.4,4.6,12.5c0,4.2-0.9,7.7-2.8,10.6c-1.8,2.9-4.3,4.4-7.3,4.4
	c-1.9,0-3.4-0.4-4.6-1.4s-1.7-2.2-1.7-3.8c0-0.7,0.1-1.5,0.3-2.4c0.2-0.9,0.4-1.5,0.5-2c0.5-1.5,0.8-2.9,0.8-4.2c0-1.3-0.3-2.3-1-3
	c-0.6-0.7-1.6-1-2.8-1c-2.3,0-4.5,1-6.5,3.1c-2,2-3.6,4.8-4.8,8.3c-1.2,3.5-1.8,7.3-1.8,11.5c0,11.6,5,17.4,15.1,17.4
	c4.1,0,8.5-1.4,13.3-4.1c4.8-2.8,9.4-6.9,14-12.4c1.2-1.4,2.5-2.1,4-2.1c1.3,0,2.3,0.6,3.1,1.8c0.8,1.2,1.1,2.9,1.1,5
	c0,3.8-0.9,6.9-2.9,9.3C62.2,91.6,56.6,96.1,50,99.2C43.5,102.4,37.1,103.9,31,104L31,104z M68.3,104c-3.8,0-6.5-2-8-6
	s-2.3-10.4-2.3-19.2c0-13,1.9-25.4,5.5-37c0.9-2.9,2.4-5,4.4-6.4s4.9-2,8.6-2c2,0,3.4,0.3,4.2,0.8c0.8,0.5,1.2,1.4,1.2,2.9
	c0,1.6-0.8,5.2-2.3,10.8c-1,4-1.8,7.5-2.4,10.5c-0.6,3-1.1,6.7-1.5,11.1c3.3-8.6,7-15.6,11.1-21c4.1-5.4,8.1-9.3,12.1-11.5
	c3.9-2.3,7.6-3.5,10.9-3.5c6.5,0,9.8,3.3,9.8,9.8c0,1.3-0.5,4.5-1.4,9.5c-0.8,4-1.2,6.5-1.2,7.5c0,3.5,1.3,5.3,3.8,5.3
	c2.8,0,6.4-2.2,10.8-6.6c1.3-1.3,2.6-1.9,4-2c1.3,0,2.3,0.6,3.1,1.7c0.7,1.1,1.1,2.7,1.1,4.6c0,3.7-1,6.6-3,8.7
	c-2.8,2.9-6.1,5.4-9.8,7.4c-3.8,2.1-7.7,3.1-11.9,3.1c-5.3,0-9.3-1.4-12.1-4s-4.1-6.3-4.1-11c0-1.5,0.2-3,0.5-4.5
	c0.2-2,0.3-3.4,0.3-4c0-1.6-0.6-2.4-1.6-2.4c-1.5,0-3.5,1.7-5.9,5c-2.5,3.3-4.9,7.8-7.3,13.3S80.4,85.9,78.9,92
	c-1.1,4.7-2.4,7.9-3.8,9.5C73.6,103.1,71.3,104,68.3,104L68.3,104z M145.5,23.4c-4.2,0-7.4-1-9.5-2.9c-2.1-1.9-3.1-4.7-3.1-8.2
	s1.4-6.4,4.1-8.8c2.8-2.4,6.2-3.5,10.3-3.5c3.7,0,6.7,0.9,9,2.7c2.3,1.8,3.5,4.4,3.5,7.6c0,4-1.3,7.2-3.9,9.5S149.8,23.4,145.5,23.4
	L145.5,23.4z M144.3,104c-6.5,0-11.2-2.3-14.2-6.9c-2.9-4.6-4.4-10.7-4.4-18.3c0-4.5,0.6-10.3,1.7-17.3c1.2-7,2.6-13.6,4.4-19.7
	c0.9-3.2,2.1-5.4,3.6-6.6c1.5-1.2,3.9-1.8,7.2-1.8c5.1,0,7.7,1.7,7.7,5.1c0,2.5-1,8.3-2.8,17.4c-2.4,11-3.6,18.5-3.6,22.4
	c0,3,0.4,5.3,1.2,6.9c0.8,1.6,2.2,2.4,4.1,2.4c1.8,0,4-1.2,6.8-3.8c2.7-2.5,6.3-6.5,10.8-11.9c1.2-1.4,2.5-2.1,4-2.1
	c1.3,0,2.3,0.6,3.1,1.8c0.8,1.2,1.1,2.9,1.1,5c0,4-0.9,7.1-2.8,9.3C162.2,97.9,152.9,104,144.3,104L144.3,104z M190.6,107.3
	c-5.2,0-9.2-1.2-11.9-3.6s-4.1-5.1-4.1-8.1c0-2.6,1-4.9,2.8-6.8c1.9-1.9,4.7-2.8,8.4-2.9c1.3,0,2.8,0.1,4.6,0.4s3.1,0.4,4,0.5
	c-0.1-2.6-0.7-5-1.7-7.4c-1-2.3-2.4-4.5-4-6.7c-1.6-2.1-3.1-4-4.5-5.6c-3.1,5.9-6.2,10.8-9.2,14.7c-3,3.9-6.4,7.6-10,11.1
	c-1.8,1.8-3.7,2.7-5.7,2.7c-1.6,0-2.9-0.6-3.9-1.7c-1-1.2-1.5-2.6-1.5-4.3c0-2,0.7-3.9,2.1-5.5l2-2.4c5.5-6.8,9.6-12.4,12.5-16.8
	c1.7-2.9,3.7-6.8,6-11.6c2.3-4.8,4.5-9.9,6.8-15.1c1.9-4.4,5.8-6.6,11.8-6.6c2.8,0,4.8,0.3,5.8,0.8c1.1,0.5,1.7,1.3,1.7,2.4
	c0,0.6-0.2,1.5-0.6,2.9c-0.4,1.3-1,2.6-1.7,3.9c-1.8,3.6-2.7,6.7-2.7,9.1c0,1.5,0.5,3.1,1.6,5c1.1,1.8,2.7,4.1,4.9,6.7
	c3.2,4.2,5.6,7.8,7.3,10.7c1.6,2.9,2.5,6.2,2.5,9.7c0,1-0.1,2.4-0.3,4.2c4.9-1.9,10.7-6.9,17.3-15.1c1.2-1.4,2.5-2.1,4-2.1
	c1.3,0,2.3,0.6,3.1,1.8c0.8,1.2,1.1,2.9,1.1,5c0,3.8-1,6.9-2.8,9.3c-5,6.2-9.8,10.4-14.3,12.7s-10.2,3.5-16.9,3.7
	C200.9,105.5,196.2,107.2,190.6,107.3L190.6,107.3z M237.1,104c-4.4,0-7.7-1.2-10-3.6c-2.3-2.4-3.4-5.5-3.4-9.5
	c0-4.5,1.3-8.1,3.8-10.8c2.5-2.7,6.1-4,10.7-4c4.4,0,7.7,1.1,10,3.2c2.3,2.1,3.4,5.3,3.4,9.5c0,4.6-1.3,8.3-3.9,11
	S241.6,104,237.1,104L237.1,104z"/>
</svg>
